<?xml version="1.0" standalone="no"?>
<!DOCTYPE svg PUBLIC "-//W3C//DTD SVG 20010904//EN"
 "http://www.w3.org/TR/2001/REC-SVG-20010904/DTD/svg10.dtd">
<svg version="1.0" xmlns="http://www.w3.org/2000/svg"
 width="1000.000000pt" height="667.000000pt" viewBox="0 0 1000.000000 667.000000"
 preserveAspectRatio="xMidYMid meet">

<g transform="translate(0.000000,667.000000) scale(0.100000,-0.100000)"
fill="#000000" stroke="none">
<path d="M0 6371 l1 -212 27 3 c26 3 27 5 26 68 -1 59 -41 339 -50 349 -2 3
-4 -91 -4 -208z"/>
<path d="M9331 6534 l-21 -15 23 -40 c23 -42 76 -81 78 -57 5 89 5 91 -27 109
-28 15 -34 16 -53 3z"/>
<path d="M4365 6252 c-78 -37 -123 -117 -111 -200 27 -197 305 -223 367 -35
11 34 8 127 -5 140 -3 3 -39 -26 -80 -65 -76 -74 -102 -85 -128 -54 -35 40
-31 51 48 132 46 47 71 81 64 85 -28 17 -116 15 -155 -3z"/>
<path d="M4490 6155 c-69 -70 -73 -76 -58 -91 16 -16 22 -12 87 51 73 70 81
84 58 103 -10 9 -30 -6 -87 -63z"/>
<path d="M7960 6119 c-30 -4 -95 -10 -145 -13 -76 -4 -139 -5 -345 -4 -16 0
-38 -14 -63 -41 -21 -23 -41 -41 -45 -41 -5 0 -19 -10 -32 -22 -19 -18 -37
-23 -85 -24 -33 -1 -69 -2 -81 -3 -12 -1 -33 -12 -47 -25 -25 -23 -26 -27 -22
-127 2 -57 -1 -126 -6 -154 -4 -27 -11 -84 -14 -125 -7 -77 -32 -163 -45 -155
-4 3 -13 -2 -20 -10 -15 -18 -74 -19 -174 -5 -51 8 -72 7 -83 -2 -24 -19 -54
-88 -48 -107 3 -10 6 -46 6 -79 l1 -61 42 -6 c22 -3 318 -5 656 -3 598 3 616
2 654 -17 77 -39 81 -52 79 -263 -1 -166 -56 -1468 -67 -1598 -5 -60 0 -70 39
-77 53 -11 364 -32 425 -29 19 0 53 -4 74 -9 22 -6 114 -12 205 -14 91 -3 168
-5 171 -6 3 -1 10 0 15 1 6 1 80 1 165 1 187 -2 173 -2 213 -1 29 0 115 -7
127 -11 3 0 39 -2 80 -4 107 -3 199 -14 219 -25 10 -5 57 -11 104 -14 l87 -6
-2 1098 -3 1097 -25 3 c-14 1 -56 2 -95 1 -141 -1 -161 -1 -207 4 -27 3 -46 1
-42 -4 3 -5 1 -9 -5 -9 -5 0 -12 4 -15 9 -4 5 -21 6 -39 3 -17 -4 -77 -5 -132
-3 -158 6 -235 5 -310 -2 -134 -13 -236 -12 -246 4 -5 8 -8 44 -8 82 2 76 -9
68 109 72 51 2 74 8 103 28 21 14 43 28 50 30 9 3 9 9 -1 23 -6 11 -15 26 -18
34 -3 8 -10 25 -14 37 -17 41 -65 56 -170 54 -82 -2 -100 -5 -133 -27 -25 -16
-40 -35 -44 -54 -3 -16 -12 -35 -19 -41 -8 -6 -14 -18 -14 -27 0 -25 -50 -59
-94 -64 -42 -5 -105 -3 -164 7 -23 3 -31 1 -26 -7 4 -7 3 -8 -4 -4 -22 13 -55
16 -69 5 -9 -8 -13 -8 -13 0 0 11 -27 11 -46 -1 -27 -17 -77 -18 -103 -2 -56
36 -76 68 -84 134 -3 25 -11 59 -17 75 -21 55 -24 79 -23 200 1 75 8 147 19
192 20 81 13 111 -33 132 -26 12 -24 12 -103 0z m-145 -301 c9 -20 14 -26 15
-15 0 10 5 15 11 12 6 -4 8 -14 5 -22 -3 -8 -2 -11 3 -8 5 3 12 1 15 -3 3 -5
16 -7 29 -5 31 6 45 -24 20 -43 -16 -13 -15 -14 12 -8 l30 6 -24 -17 c-19 -15
-29 -16 -57 -7 -23 7 -34 7 -34 0 0 -7 -4 -7 -13 0 -7 6 -25 9 -40 8 -36 -4
-48 19 -37 67 4 20 5 37 1 37 -5 1 39 29 47 30 2 0 9 -15 17 -32z m-165 -88
c0 -11 -6 -20 -14 -20 -9 0 -12 7 -9 20 3 11 9 20 14 20 5 0 9 -9 9 -20z"/>
<path d="M7890 5760 c0 -6 7 -10 15 -10 8 0 15 2 15 4 0 2 -7 6 -15 10 -8 3
-15 1 -15 -4z"/>
<path d="M1495 6078 c-22 -6 -41 -12 -43 -13 -2 -1 7 -18 18 -38 11 -19 28
-72 36 -118 9 -46 18 -86 19 -88 2 -2 10 12 18 30 16 40 18 231 2 235 -5 1
-28 -3 -50 -8z"/>
<path d="M1557 5573 c-12 -12 -7 -53 6 -53 23 0 37 21 26 42 -10 19 -21 23
-32 11z"/>
<path d="M3294 5509 c-18 -20 -18 -20 21 -17 28 2 41 8 43 21 5 25 -40 22 -64
-4z"/>
<path d="M5665 5484 c-16 -6 -43 -24 -59 -39 -19 -18 -31 -23 -36 -15 -4 7
-33 9 -86 6 -75 -5 -119 -12 -224 -35 -41 -8 -259 -7 -420 3 -90 6 -162 25
-167 46 -2 9 -13 21 -23 28 -15 9 -21 7 -36 -16 -26 -40 -41 -53 -91 -79 -85
-46 -322 -32 -338 19 -4 10 -11 18 -16 18 -5 0 -9 6 -9 14 0 26 -30 27 -42 1
-13 -29 -19 -32 -128 -57 -98 -23 -146 -24 -176 -6 -6 4 -30 9 -52 10 -23 2
-42 5 -42 8 0 4 -16 4 -34 2 -28 -3 -47 -17 -95 -72 -73 -82 -69 -81 -351 -85
-113 -1 -425 -6 -695 -10 -278 -3 -514 -3 -546 2 -90 15 -120 -10 -100 -84 6
-21 13 -60 16 -88 3 -27 10 -75 15 -105 5 -30 12 -89 15 -130 4 -41 9 -91 11
-110 2 -19 8 -75 14 -125 6 -49 15 -124 20 -165 5 -41 12 -104 15 -140 3 -36
15 -131 26 -212 11 -81 21 -197 23 -257 2 -60 6 -113 9 -118 3 -4 8 -31 11
-59 3 -28 10 -63 16 -78 5 -15 12 -69 16 -119 4 -76 9 -96 27 -116 21 -22 26
-23 112 -17 50 3 101 8 114 11 97 19 436 27 478 10 10 -4 44 -9 77 -11 32 -2
65 -9 72 -15 18 -15 16 -96 18 886 1 805 1 821 21 855 44 75 -43 70 1226 70
1057 0 1290 3 1287 19 -2 8 10 39 28 77 12 24 22 31 47 32 17 0 33 6 35 12 2
6 14 23 26 38 32 38 53 151 34 184 -12 23 -15 24 -43 12z"/>
<path d="M9798 5446 c-38 -10 -52 -26 -22 -26 8 0 12 -5 9 -11 -8 -12 62 -8
83 5 34 21 -18 45 -70 32z"/>
<path d="M4333 5090 l-1241 -5 -26 -24 c-15 -14 -31 -43 -37 -65 -9 -30 -10
-460 -4 -1586 4 -850 6 -1587 5 -1637 -1 -51 1 -93 5 -93 4 0 32 16 63 35 32
18 75 36 97 38 22 3 67 17 100 32 122 55 164 67 208 60 50 -8 145 -10 242 -5
54 3 78 0 105 -14 19 -10 37 -22 40 -27 3 -4 40 -30 83 -58 69 -45 209 -165
202 -173 -1 -2 -5 -16 -9 -33 -4 -19 -3 -25 2 -17 7 11 12 11 25 -2 8 -9 18
-16 21 -16 4 0 44 -38 90 -85 73 -75 109 -105 91 -75 -14 22 9 8 44 -28 38
-38 57 -72 41 -72 -5 0 -7 -7 -4 -15 5 -11 2 -13 -10 -9 -10 4 -15 13 -12 21
3 8 2 11 -3 8 -13 -7 -106 29 -126 49 -9 9 -31 16 -48 16 -36 1 -66 19 -60 38
3 6 -3 12 -12 12 -10 0 -26 9 -36 21 -16 19 -22 20 -53 9 -19 -6 -37 -16 -40
-23 -5 -9 -7 -9 -12 0 -3 7 -12 9 -20 6 -8 -3 -14 1 -14 8 0 11 -3 11 -10 -1
-8 -12 -10 -12 -11 5 0 11 -3 14 -6 8 -2 -7 -9 -13 -14 -13 -6 0 -7 4 -4 10 3
5 -3 10 -13 10 -11 0 -25 7 -32 15 -7 8 -23 15 -35 15 -13 0 -37 8 -54 17 -30
18 -31 18 -47 -6 -16 -22 -18 -23 -30 -6 -7 10 -24 19 -37 20 -19 2 -29 -9
-62 -65 -24 -44 -46 -71 -60 -74 -16 -4 -27 -20 -40 -62 -16 -51 -19 -55 -42
-49 -20 5 -24 2 -21 -12 1 -10 -1 -24 -6 -31 -5 -8 -3 -24 5 -40 19 -36 80
-91 101 -92 9 0 20 -4 23 -10 10 -16 25 -12 25 8 0 13 2 14 9 4 5 -9 23 -12
59 -8 28 2 52 0 54 -4 2 -5 20 -5 42 0 21 4 45 6 53 3 7 -3 23 3 34 13 19 17
20 17 14 -2 -6 -16 -5 -17 7 -4 34 39 150 56 170 26 5 -8 8 -7 8 2 0 6 9 12
19 12 20 0 31 -18 38 -59 4 -22 2 -23 -36 -18 -23 3 -39 2 -36 -3 3 -4 -2 -13
-10 -20 -15 -12 -17 -60 -3 -60 4 0 6 -10 4 -22 -3 -13 -5 -26 -5 -29 -1 -3
-14 -6 -30 -5 -18 1 -27 5 -24 14 4 8 0 10 -12 6 -10 -4 -15 -14 -12 -24 3
-13 0 -16 -14 -13 -11 3 -21 -1 -25 -11 -3 -9 -9 -14 -13 -11 -4 2 -20 -3 -35
-11 -34 -17 -39 -18 -30 -3 4 8 0 8 -15 0 -13 -7 -21 -8 -21 -2 0 6 -12 -1
-26 -14 -15 -14 -31 -25 -35 -25 -5 0 -9 -7 -9 -15 0 -26 -64 -85 -92 -85 -13
0 -28 -3 -31 -6 -3 -4 -23 -8 -44 -11 -94 -10 -88 -7 -85 -41 3 -25 0 -32 -13
-32 -11 0 -15 5 -11 15 4 12 2 13 -14 2 -11 -6 -20 -17 -20 -24 0 -19 -15 -23
-48 -14 -34 10 -75 4 -66 -10 9 -15 -31 -58 -45 -49 -11 6 -11 9 0 13 8 2 2 4
-13 3 -14 0 -24 -4 -21 -8 2 -5 -6 -8 -18 -8 -12 0 -28 -8 -36 -17 -14 -17
-14 -17 -9 -1 3 10 1 20 -5 24 -6 3 -13 -3 -16 -15 -3 -13 -14 -21 -27 -22
-11 0 -29 -2 -39 -4 -9 -2 -24 3 -31 11 -8 8 -22 14 -31 14 -9 0 -23 7 -31 15
-18 17 -34 20 -34 5 0 -5 5 -10 11 -10 5 0 7 -5 3 -11 -5 -8 -8 -8 -13 0 -4 6
-19 12 -33 13 -18 2 -31 12 -43 35 -10 18 -25 33 -33 33 -9 0 -12 6 -8 15 4
13 -2 15 -34 13 -22 -2 -40 -6 -40 -10 0 -5 -9 -8 -19 -8 -11 0 -23 -5 -26
-10 -4 -6 -15 -8 -26 -5 -13 4 -19 2 -19 -8 0 -10 -8 -13 -27 -9 -22 4 -25 2
-20 -12 6 -14 3 -16 -13 -11 -14 4 -20 2 -18 -7 2 -8 -4 -12 -16 -10 -14 3
-17 -1 -12 -14 4 -10 1 -21 -6 -26 -10 -8 -10 -11 0 -15 6 -2 12 -10 12 -16 0
-20 -35 -86 -45 -84 -12 2 -75 -60 -75 -75 0 -16 -90 -99 -101 -93 -5 4 -9 2
-9 -3 0 -4 -16 -14 -35 -22 -19 -8 -35 -20 -35 -27 0 -8 -6 -13 -13 -12 -25 3
-37 -1 -34 -13 1 -7 -6 -12 -15 -12 -11 1 -14 -4 -10 -14 4 -12 1 -14 -12 -9
-13 5 -19 1 -23 -13 -3 -10 -14 -22 -24 -25 -10 -4 -19 -11 -19 -16 0 -5 558
-9 1445 -9 l1446 0 -5 33 c-3 17 -8 56 -11 86 -9 83 -17 91 -79 91 -63 0 -96
21 -126 81 -37 71 -21 134 39 159 40 16 44 33 21 75 -11 20 -20 41 -20 47 0 7
-18 42 -41 80 -38 62 -60 86 -153 161 -38 31 -66 78 -66 111 0 12 9 35 20 53
39 64 212 84 312 36 26 -13 52 -23 57 -23 6 0 32 -15 58 -32 27 -19 61 -33 77
-33 16 0 31 -6 34 -14 3 -9 -1 -11 -16 -7 -13 4 -22 1 -25 -9 -4 -8 -3 -14 1
-13 23 7 70 -35 91 -82 13 -28 34 -58 47 -67 13 -8 24 -19 24 -24 0 -5 23 -42
50 -82 28 -41 50 -78 50 -83 0 -5 13 -15 30 -22 22 -10 31 -22 36 -50 4 -20
13 -41 19 -47 27 -22 95 -118 95 -133 0 -10 14 -32 30 -49 38 -40 67 -39 85 5
10 23 10 30 2 28 -7 -1 -8 -1 -4 2 4 2 23 28 42 58 27 42 40 54 60 54 32 0 67
34 58 57 -12 35 -27 44 -62 42 -20 -2 -61 1 -91 5 -31 4 -66 3 -80 -2 -38 -14
-70 2 -70 35 0 37 126 158 173 167 18 4 82 27 144 51 66 26 128 45 151 45 50
0 104 -35 118 -78 5 -18 14 -29 19 -25 4 5 5 0 2 -10 -5 -12 0 -21 16 -28 19
-9 42 -47 60 -102 4 -9 13 -17 22 -17 26 0 157 49 175 65 9 8 22 15 29 15 6 0
14 7 17 15 8 21 154 21 198 0 59 -28 158 -117 198 -179 35 -54 39 -66 34 -104
-3 -24 -9 -49 -13 -55 -4 -7 -9 -21 -10 -32 -2 -11 -10 -33 -17 -50 -8 -16
-17 -50 -21 -75 -4 -25 -11 -52 -15 -60 -4 -8 -10 -27 -14 -42 l-6 -28 1595 0
1595 0 0 180 0 180 -117 -6 c-140 -7 -136 -6 -145 -19 -5 -6 -8 -5 -8 3 0 7
-14 12 -35 12 -19 0 -35 -5 -35 -11 0 -6 -6 -9 -14 -6 -7 3 -18 1 -24 -5 -7
-7 -16 -6 -30 1 -15 8 -22 8 -26 -2 -4 -8 -8 -9 -11 -1 -4 7 -29 10 -74 6 -62
-4 -69 -2 -96 22 -15 14 -32 26 -36 26 -5 0 -12 12 -15 27 -4 16 -15 39 -26
52 -10 13 -18 32 -18 42 0 9 -11 30 -23 46 -13 15 -45 60 -70 98 -25 39 -60
86 -77 105 -18 19 -40 51 -50 70 -28 54 -67 101 -92 114 -15 8 -22 20 -21 33
4 32 -116 195 -155 212 -18 8 -32 21 -32 29 0 8 -16 37 -35 63 -19 27 -35 54
-35 59 0 6 -19 37 -43 70 -31 42 -47 56 -54 49 -17 -17 -25 20 -28 134 -1 56
-10 153 -19 215 -9 63 -13 120 -8 128 4 7 65 74 135 148 70 74 127 138 127
142 0 4 8 13 18 20 15 12 15 13 -10 14 -29 0 -46 -15 -26 -23 8 -4 7 -6 -3 -6
-9 -1 -19 6 -23 14 -3 8 -16 15 -28 15 -16 0 -19 -3 -10 -9 11 -7 11 -9 -2
-14 -21 -8 -48 2 -40 15 6 10 -69 5 -146 -10 -44 -8 -175 -7 -215 1 -43 9
-137 17 -192 17 -116 -1 -103 8 -104 -73 0 -40 -3 -66 -6 -59 -3 8 0 109 6
225 12 228 27 643 36 982 3 116 19 532 36 926 33 794 34 773 -30 816 -33 22
-40 23 -275 23 -133 0 -686 1 -1231 3 -544 1 -1549 0 -2232 -3z m2012 -196
c907 -3 1652 -7 1654 -10 3 -2 -5 -233 -17 -512 -12 -279 -40 -914 -62 -1412
-21 -498 -42 -972 -45 -1055 -3 -82 -8 -168 -11 -190 l-5 -40 -107 7 c-59 4
-334 23 -612 43 -552 38 -654 45 -1525 105 -830 57 -2145 148 -2300 160 -71 6
-142 10 -157 10 l-28 0 0 1456 0 1455 783 -5 c430 -3 1524 -8 2432 -12z m1672
-2931 c-3 -10 -5 -4 -5 12 0 17 2 24 5 18 2 -7 2 -21 0 -30z m-2812 -233 c3
-5 1 -10 -4 -10 -6 0 -11 5 -11 10 0 6 2 10 4 10 3 0 8 -4 11 -10z m35 0 c0
-5 -5 -10 -11 -10 -5 0 -7 5 -4 10 3 6 8 10 11 10 2 0 4 -4 4 -10z m86 1 c-8
-12 22 -23 37 -14 7 3 8 2 4 -3 -12 -13 -57 -12 -57 1 0 11 9 25 17 25 2 0 2
-4 -1 -9z m-48 -19 c6 -18 -15 -14 -22 4 -4 10 -1 14 6 12 6 -2 14 -10 16 -16z
m162 -13 c0 -14 -16 -11 -29 5 -10 12 -8 13 8 9 12 -3 21 -9 21 -14z m43 6 c4
-8 2 -17 -3 -20 -6 -4 -10 3 -10 14 0 25 6 27 13 6z m71 -25 c-6 -6 -10 -3
-10 10 0 13 4 16 10 10 7 -7 7 -13 0 -20z m-724 -202 c0 -3 -9 -6 -20 -5 -11
1 -20 5 -20 9 0 3 9 6 20 5 11 -1 20 -5 20 -9z m3187 1 c-14 -8 -17 -18 -12
-40 7 -32 -1 -38 -20 -12 -10 14 -10 21 2 40 9 13 23 23 32 23 14 -1 13 -2 -2
-11z m-3144 -6 c-7 -2 -19 -2 -25 0 -7 3 -2 5 12 5 14 0 19 -2 13 -5z m120
-10 c-7 -2 -19 -2 -25 0 -7 3 -2 5 12 5 14 0 19 -2 13 -5z m115 -10 c-10 -2
-26 -2 -35 0 -10 3 -2 5 17 5 19 0 27 -2 18 -5z m79 1 c-3 -3 -12 -4 -19 -1
-8 3 -5 6 6 6 11 1 17 -2 13 -5z m733 -60 c0 -10 -7 -14 -22 -12 -32 5 -35 28
-4 28 17 0 26 -5 26 -16z m2426 9 c-11 -12 -86 -32 -86 -24 0 4 17 12 38 18
48 14 57 15 48 6z m-326 -40 c0 -32 -5 -28 -14 10 -4 19 -3 26 4 22 5 -3 10
-18 10 -32z m610 28 c0 -6 -4 -13 -10 -16 -5 -3 -10 1 -10 9 0 9 5 16 10 16 6
0 10 -4 10 -9z m-2355 -21 c3 -5 -3 -10 -15 -10 -12 0 -18 5 -15 10 3 6 10 10
15 10 5 0 12 -4 15 -10z m1902 -17 c1 -22 -1 -24 -8 -10 -6 9 -7 22 -4 27 9
14 10 13 12 -17z m-1391 -28 l29 -16 -29 3 c-16 2 -31 9 -34 16 -5 16 0 15 34
-3z m117 9 c11 -11 -5 -34 -23 -34 -18 0 -34 23 -23 34 4 3 14 6 23 6 9 0 19
-3 23 -6z m1204 -10 c-3 -3 -12 -4 -19 -1 -8 3 -5 6 6 6 11 1 17 -2 13 -5z
m-4304 -57 c5 -20 3 -19 -19 6 -13 15 -24 33 -24 39 0 18 37 -21 43 -45z
m3257 43 c13 -8 12 -10 -2 -10 -10 0 -21 0 -25 -1 -4 0 -9 4 -11 10 -5 14 18
14 38 1z m965 1 c3 -5 1 -12 -5 -16 -5 -3 -10 1 -10 9 0 18 6 21 15 7z m-2465
-11 c0 -5 -5 -10 -11 -10 -5 0 -7 5 -4 10 3 6 8 10 11 10 2 0 4 -4 4 -10z
m2720 -10 c0 -5 -10 -10 -22 -10 -19 0 -20 2 -8 10 19 13 30 13 30 0z m-2130
-34 c0 -3 -4 -8 -10 -11 -5 -3 -10 -1 -10 4 0 6 5 11 10 11 6 0 10 -2 10 -4z
m-790 -56 c0 -5 -5 -10 -11 -10 -5 0 -7 5 -4 10 3 6 8 10 11 10 2 0 4 -4 4
-10z m600 -50 c0 -5 -4 -10 -10 -10 -5 0 -10 5 -10 10 0 6 5 10 10 10 6 0 10
-4 10 -10z m310 -20 c0 -5 -4 -10 -10 -10 -5 0 -10 5 -10 10 0 6 5 10 10 10 6
0 10 -4 10 -10z m317 -12 c-3 -8 -6 -5 -6 6 -1 11 2 17 5 13 3 -3 4 -12 1 -19z
m2130 -10 c-3 -8 -6 -5 -6 6 -1 11 2 17 5 13 3 -3 4 -12 1 -19z m-4472 -2 c21
-8 47 -24 57 -36 27 -34 22 -100 -8 -100 -8 0 -14 -4 -14 -10 0 -21 -37 -9
-58 19 -20 27 -26 46 -39 114 -6 31 3 33 62 13z m825 -20 c0 -3 -4 -8 -10 -11
-5 -3 -10 -1 -10 4 0 6 5 11 10 11 6 0 10 -2 10 -4z m630 -56 c0 -5 -9 -10
-20 -10 -11 0 -20 5 -20 10 0 6 9 10 20 10 11 0 20 -4 20 -10z m-1520 -76 c0
-12 -4 -12 -19 -2 -11 7 -18 15 -15 20 7 11 34 -3 34 -18z m1290 -54 c0 -5 -4
-10 -10 -10 -5 0 -10 5 -10 10 0 6 5 10 10 10 6 0 10 -4 10 -10z m35 0 c3 -5
-1 -10 -10 -10 -9 0 -13 5 -10 10 3 6 8 10 10 10 2 0 7 -4 10 -10z m2760 -25
c44 -3 140 -10 214 -15 74 -5 138 -13 143 -18 6 -6 -2 -36 -21 -80 -17 -39
-31 -75 -31 -82 0 -6 -11 -32 -25 -58 -14 -26 -25 -54 -25 -62 0 -8 -9 -28
-20 -45 -11 -16 -20 -39 -20 -50 0 -11 -6 -29 -14 -40 -7 -11 -17 -31 -21 -45
-25 -80 -85 -180 -109 -180 -2 0 -7 11 -10 25 -4 14 -10 23 -15 21 -5 -3 -14
0 -20 8 -9 11 -8 18 4 30 9 9 21 13 27 10 7 -5 8 -2 3 5 -4 7 -8 39 -9 71 -1
33 -4 61 -7 64 -11 11 -39 -24 -62 -76 -7 -17 -19 -28 -32 -28 -17 -1 -15 -3
9 -16 23 -13 26 -18 15 -26 -10 -7 -7 -7 9 -3 21 6 22 4 16 -22 -8 -34 -14
-42 -14 -20 0 10 -4 17 -10 17 -5 0 -10 -7 -10 -15 0 -9 -7 -18 -16 -22 -9 -3
-14 -13 -11 -24 3 -10 -4 -25 -14 -35 -10 -9 -19 -24 -19 -33 -1 -33 -45 -67
-67 -53 -22 14 -20 94 3 116 14 15 14 17 -1 22 -13 5 -13 9 -3 22 11 13 10 15
-4 9 -10 -3 -18 -2 -18 3 0 6 5 10 10 10 7 0 6 8 -1 23 -18 32 -18 80 -1 93
14 10 13 13 -7 23 -18 10 -21 18 -16 42 4 16 2 35 -3 42 -6 7 -13 57 -16 112
-4 55 -9 117 -12 138 -3 21 -1 43 5 51 7 8 7 23 1 47 -18 62 -18 62 68 55 42
-3 113 -8 157 -11z m-2135 1 c0 -3 -4 -8 -10 -11 -5 -3 -10 -1 -10 4 0 6 5 11
10 11 6 0 10 -2 10 -4z m330 -26 c0 -5 -7 -10 -16 -10 -8 0 -12 5 -9 10 3 6
10 10 16 10 5 0 9 -4 9 -10z m-770 -90 c0 -5 -4 -10 -9 -10 -6 0 -13 5 -16 10
-3 6 1 10 9 10 9 0 16 -4 16 -10z m3700 -550 c0 -5 12 -10 28 -11 15 0 21 -3
15 -6 -7 -2 -13 -10 -13 -17 0 -17 -34 -56 -49 -56 -6 0 -11 8 -11 18 0 10 -4
22 -9 27 -13 14 5 55 24 55 8 0 15 -4 15 -10z"/>
<path d="M4490 4830 c0 -5 5 -10 11 -10 5 0 7 5 4 10 -3 6 -8 10 -11 10 -2 0
-4 -4 -4 -10z"/>
<path d="M3450 4730 c0 -5 5 -10 11 -10 5 0 7 5 4 10 -3 6 -8 10 -11 10 -2 0
-4 -4 -4 -10z"/>
<path d="M3180 4401 c-15 -30 -12 -36 9 -17 11 10 24 15 29 12 5 -3 15 1 22 9
11 13 8 15 -18 15 -21 0 -35 -7 -42 -19z"/>
<path d="M3245 4370 c-4 -6 -16 -10 -28 -8 -14 2 -22 -2 -22 -12 0 -24 42 -24
55 0 12 22 7 40 -5 20z"/>
<path d="M3625 4331 c-3 -5 -2 -12 3 -15 5 -3 9 1 9 9 0 17 -3 19 -12 6z"/>
<path d="M3750 4305 c-7 -9 -11 -17 -9 -20 3 -2 10 5 17 15 14 24 10 26 -8 5z"/>
<path d="M5034 4309 c-4 -7 1 -16 10 -21 9 -5 13 -14 10 -20 -5 -7 -2 -8 5 -4
9 6 8 12 -4 26 -13 14 -13 19 -3 23 9 4 9 6 1 6 -6 1 -15 -4 -19 -10z"/>
<path d="M5265 4300 c3 -5 8 -10 11 -10 2 0 4 5 4 10 0 6 -5 10 -11 10 -5 0
-7 -4 -4 -10z"/>
<path d="M5219 4273 c-13 -16 -12 -17 4 -4 9 7 17 15 17 17 0 8 -8 3 -21 -13z"/>
<path d="M5280 4270 c0 -5 5 -10 10 -10 6 0 10 5 10 10 0 6 -4 10 -10 10 -5 0
-10 -4 -10 -10z"/>
<path d="M3186 4144 c-18 -17 -19 -24 -10 -48 18 -48 84 -38 84 12 0 49 -42
69 -74 36z m58 -12 c10 -17 -7 -52 -25 -52 -22 0 -34 22 -25 45 6 16 41 21 50
7z"/>
<path d="M7416 4088 c-10 -38 -7 -48 14 -48 23 0 26 26 6 53 -13 16 -14 16
-20 -5z"/>
<path d="M7292 4073 c4 -37 23 -39 25 -3 2 21 -2 30 -13 30 -11 0 -14 -8 -12
-27z"/>
<path d="M7540 4080 c0 -5 5 -10 10 -10 6 0 10 5 10 10 0 6 -4 10 -10 10 -5 0
-10 -4 -10 -10z"/>
<path d="M3210 3950 c0 -5 7 -10 15 -10 8 0 15 5 15 10 0 6 -7 10 -15 10 -8 0
-15 -4 -15 -10z"/>
<path d="M3840 3739 c0 -5 5 -7 10 -4 6 3 10 8 10 11 0 2 -4 4 -10 4 -5 0 -10
-5 -10 -11z"/>
<path d="M3636 3713 c-6 -14 -5 -15 5 -6 7 7 10 15 7 18 -3 3 -9 -2 -12 -12z"/>
<path d="M3790 3715 c-7 -9 -8 -15 -2 -15 5 0 12 7 16 15 3 8 4 15 2 15 -2 0
-9 -7 -16 -15z"/>
<path d="M5026 3711 c-3 -5 1 -14 10 -21 12 -11 12 -15 2 -21 -9 -6 -9 -9 -1
-9 20 0 24 17 7 30 -12 11 -12 15 -2 21 9 6 9 9 1 9 -6 0 -14 -4 -17 -9z"/>
<path d="M3625 3180 c-4 -6 -2 -17 4 -24 6 -7 7 -17 3 -21 -4 -5 -1 -5 6 -1
10 6 10 11 2 21 -7 8 -9 19 -5 25 3 5 4 10 1 10 -3 0 -8 -5 -11 -10z"/>
<path d="M5016 3121 c-3 -5 1 -14 10 -21 12 -11 12 -15 2 -21 -9 -6 -9 -9 -1
-9 20 0 24 17 7 30 -12 11 -12 15 -2 21 9 6 9 9 1 9 -6 0 -14 -4 -17 -9z"/>
<path d="M5120 3113 c0 -6 8 -17 18 -24 16 -13 16 -13 2 6 -8 11 -16 22 -17
24 -2 2 -3 0 -3 -6z"/>
<path d="M5240 3106 c0 -9 5 -16 10 -16 6 0 10 4 10 9 0 6 -4 13 -10 16 -5 3
-10 -1 -10 -9z"/>
<path d="M5287 3113 c-4 -3 -7 -11 -7 -17 0 -6 5 -5 12 2 6 6 9 14 7 17 -3 3
-9 2 -12 -2z"/>
<path d="M3620 2606 c0 -8 4 -17 9 -20 5 -4 7 3 4 14 -6 23 -13 26 -13 6z"/>
<path d="M5015 2530 c-3 -5 -1 -10 4 -10 6 0 11 5 11 10 0 6 -2 10 -4 10 -3 0
-8 -4 -11 -10z"/>
<path d="M5088 2533 c7 -3 16 -2 19 1 4 3 -2 6 -13 5 -11 0 -14 -3 -6 -6z"/>
<path d="M5090 2505 c-7 -9 -11 -17 -9 -20 3 -2 10 5 17 15 14 24 10 26 -8 5z"/>
<path d="M5010 2500 c19 -13 30 -13 30 0 0 6 -10 10 -22 10 -19 0 -20 -2 -8
-10z"/>
<path d="M6515 2400 c3 -5 8 -10 11 -10 2 0 4 5 4 10 0 6 -5 10 -11 10 -5 0
-7 -4 -4 -10z"/>
<path d="M6510 2240 c0 -5 5 -10 10 -10 6 0 10 5 10 10 0 6 -4 10 -10 10 -5 0
-10 -4 -10 -10z"/>
<path d="M3390 2136 l0 -94 88 -6 c170 -13 359 -26 512 -36 185 -12 1005 -68
1105 -75 85 -7 1036 -71 1760 -120 292 -20 613 -42 715 -49 102 -7 188 -11
191 -7 4 3 10 48 14 98 6 74 4 94 -6 98 -14 4 -284 22 -1904 125 -434 28
-1037 66 -1340 85 -302 20 -658 42 -790 50 -132 8 -264 17 -292 20 l-53 5 0
-94z m4273 -225 l52 -6 -1 -53 c-1 -29 -4 -56 -7 -58 -6 -6 -343 14 -364 21
-9 3 -13 24 -13 61 l0 56 140 -7 c78 -4 164 -10 193 -14z"/>
<path d="M6500 2085 c0 -9 5 -15 11 -13 6 2 11 8 11 13 0 5 -5 11 -11 13 -6 2
-11 -4 -11 -13z"/>
<path d="M8266 722 c-3 -6 -1 -14 5 -17 15 -10 25 3 12 16 -7 7 -13 7 -17 1z"/>
<path d="M8210 370 c0 -5 7 -10 15 -10 8 0 15 5 15 10 0 6 -7 10 -15 10 -8 0
-15 -4 -15 -10z"/>
<path d="M215 4383 c-27 -19 -55 -46 -61 -61 -19 -46 -50 -66 -102 -67 l-47 0
-3 -91 -3 -91 49 -5 c32 -3 58 -13 72 -26 13 -12 33 -25 44 -28 11 -4 26 -13
33 -20 8 -7 20 -11 28 -8 9 4 15 0 15 -10 0 -9 5 -15 11 -14 6 2 15 -7 19 -18
6 -16 3 -27 -11 -43 -18 -20 -19 -21 -2 -21 12 0 18 -8 19 -25 1 -14 -1 -25
-5 -25 -3 0 -12 -9 -18 -20 -11 -17 -10 -18 5 -13 16 7 16 5 1 -18 -18 -26
-24 -113 -8 -104 5 4 9 -6 9 -20 0 -17 -4 -24 -12 -19 -7 4 -8 3 -4 -4 13 -22
26 -12 26 19 0 41 56 95 108 105 30 6 33 8 17 15 -13 5 -15 8 -5 8 17 1 42
-13 41 -23 -1 -4 30 -33 68 -66 69 -60 101 -112 101 -164 0 -38 22 -48 97 -44
66 3 68 4 64 28 -1 14 -8 28 -15 32 -6 4 -7 8 -2 8 5 0 3 7 -4 15 -6 8 -12 35
-12 60 0 25 -3 43 -6 41 -4 -2 -6 20 -6 50 1 30 -1 54 -5 54 -3 0 -6 12 -7 28
-2 66 -18 132 -46 192 -17 36 -36 76 -42 90 -6 14 -17 31 -23 38 -7 7 -13 18
-13 24 0 6 -10 21 -22 35 -64 71 -80 84 -98 78 -23 -7 -67 36 -92 89 -6 14
-19 28 -30 31 -10 4 -23 15 -28 26 -15 27 -37 22 -95 -18z m125 -507 c0 -11
-19 -15 -25 -6 -3 5 1 10 9 10 9 0 16 -2 16 -4z"/>
<path d="M259 3608 c-8 -28 -7 -49 3 -46 14 5 22 48 8 48 -6 0 -10 -1 -11 -2z"/>
<path d="M252 3535 c-1 -5 -4 -46 -6 -90 -3 -44 -7 -93 -10 -110 -3 -17 -1
-32 7 -37 14 -9 177 -11 177 -3 0 19 -34 67 -61 85 -29 22 -48 54 -53 95 -7
51 -19 74 -35 72 -10 0 -18 -6 -19 -12z"/>
<path d="M884 3416 c-39 -6 -55 -14 -64 -32 -7 -13 -17 -22 -23 -21 -5 1 -12
-4 -14 -10 -7 -19 37 -32 125 -38 182 -14 317 -1 354 32 11 10 18 12 18 5 0
-7 8 -12 17 -12 16 0 16 1 2 16 -19 18 -75 33 -139 38 -25 1 -52 5 -60 9 -34
13 -168 21 -216 13z"/>
<path d="M0 3306 c0 -12 10 -16 38 -16 20 0 44 5 52 10 11 7 6 10 -22 10 -20
0 -43 3 -52 6 -11 4 -16 1 -16 -10z"/>
<path d="M0 1575 l0 -1575 790 0 c592 0 789 3 784 12 -5 7 -2 9 7 6 17 -7 21
43 4 54 -5 4 0 8 13 8 12 0 22 5 22 10 0 6 7 10 16 10 8 0 13 3 11 8 -6 8 14
28 28 27 6 0 16 -4 23 -8 8 -6 12 -2 12 12 0 10 6 22 13 24 9 4 9 8 -1 15 -11
7 -8 11 12 16 21 5 25 11 22 36 -3 29 7 40 19 20 10 -16 28 -11 21 6 -4 12 -2
15 9 10 8 -3 15 -1 15 3 0 5 3 16 6 24 3 10 -1 17 -13 20 -10 2 -3 4 15 4 18
0 35 3 39 6 3 4 -3 7 -15 7 -12 0 -22 5 -22 10 0 6 7 10 15 10 19 0 19 7 1 26
-21 20 -46 17 -46 -5 0 -11 -5 -23 -11 -26 -6 -4 -9 4 -7 22 3 24 -1 28 -25
31 -16 2 -34 -2 -42 -8 -9 -7 -15 -8 -20 0 -10 16 -68 12 -94 -6 -22 -16 -24
-16 -33 1 -8 14 -12 15 -19 4 -6 -11 -12 -9 -29 9 -11 12 -30 22 -41 22 -14 0
-19 5 -16 14 3 8 1 17 -6 19 -7 2 0 10 16 17 15 8 30 24 33 37 4 13 12 23 20
23 8 0 14 7 14 15 0 9 7 18 15 21 8 4 15 12 15 20 0 8 5 14 10 14 6 0 10 11
10 25 0 14 -4 25 -10 25 -18 0 -11 36 15 74 14 20 25 41 25 46 0 4 10 6 23 3
18 -5 20 -3 10 8 -18 18 -16 30 4 22 13 -5 15 -2 11 15 -5 17 -2 22 14 22 11
0 33 11 50 25 20 17 24 25 14 25 -9 0 -16 6 -16 13 0 16 56 47 86 47 13 0 24
5 24 10 0 6 9 10 20 10 25 0 26 17 3 23 -10 2 -8 3 5 2 12 -1 25 2 28 7 4 6
40 7 88 4 49 -4 73 -3 61 3 -11 4 -81 14 -155 20 -74 7 -157 14 -184 16 -50 5
-71 14 -48 22 21 8 14 32 -8 26 -16 -4 -19 -2 -14 11 3 9 11 16 16 16 6 0 8 7
4 15 -3 8 -1 15 4 15 6 0 10 7 10 15 0 9 10 20 23 25 17 7 18 9 5 9 -10 1 -18
6 -18 12 0 6 -9 9 -20 6 -27 -7 -25 8 2 27 l22 16 -27 0 c-15 0 -27 4 -27 9 0
5 -8 11 -17 13 -14 3 -9 9 17 23 35 19 35 19 10 25 -14 4 -28 2 -31 -3 -4 -5
-12 -1 -17 10 -8 14 -8 23 0 31 13 13 0 35 -17 29 -10 -4 -10 0 -1 19 6 13 17
24 24 24 7 0 10 5 6 11 -5 8 24 9 102 4 192 -11 474 -35 654 -55 l175 -20 82
83 81 82 -25 25 c-25 25 -25 25 -20 2 3 -12 2 -20 -3 -17 -4 3 -11 26 -15 51
-9 61 -14 74 -31 74 -7 0 -17 6 -21 14 -14 23 -48 37 -61 24 -7 -7 -15 -8 -19
-4 -4 4 -1 11 6 15 9 6 5 10 -14 15 -33 8 -33 9 -42 -39 -7 -32 -13 -38 -36
-41 -24 -2 -27 0 -23 22 5 27 -2 30 -29 10 -11 -8 -25 -12 -31 -9 -7 2 -15 0
-19 -6 -3 -6 -21 -11 -40 -11 -21 0 -35 -6 -39 -16 -5 -14 -9 -12 -26 7 -11
13 -19 18 -20 12 0 -7 -6 -13 -14 -13 -8 0 -17 6 -19 13 -4 9 -7 9 -15 -1 -10
-15 -62 -6 -62 10 0 7 -5 6 -13 -1 -17 -14 -103 1 -99 17 1 7 -2 12 -8 12 -5
0 -10 -4 -10 -10 0 -5 -5 -10 -11 -10 -10 0 -9 14 2 45 2 6 0 12 -6 13 -5 2
-16 8 -22 14 -9 7 -13 7 -13 -1 0 -6 -5 -11 -10 -11 -6 0 -8 13 -5 32 5 28 4
30 -10 18 -14 -12 -15 -10 -9 15 5 20 4 26 -5 21 -6 -4 -11 -14 -11 -23 0 -12
-3 -13 -15 -3 -13 11 -13 14 0 27 18 17 19 33 4 33 -5 0 -7 -5 -4 -10 3 -6 0
-10 -9 -10 -8 0 -22 -3 -31 -7 -14 -5 -16 -2 -10 15 5 18 2 22 -14 22 -24 0
-27 10 -8 29 10 10 9 11 -5 6 -13 -5 -18 -2 -18 9 0 9 -6 16 -14 16 -9 0 -12
7 -9 20 4 16 2 19 -11 14 -9 -3 -16 -2 -16 4 0 6 6 12 13 15 9 3 9 9 -1 26 -7
12 -8 21 -2 21 5 0 10 7 10 15 0 8 -4 15 -10 15 -5 0 -10 9 -10 20 0 11 5 20
11 20 8 0 7 6 -2 16 -17 21 -18 56 0 70 11 9 11 13 0 25 -8 8 -14 35 -14 63 1
26 -4 50 -10 52 -10 4 -11 59 -2 117 3 16 0 47 -5 69 -10 45 -8 48 19 53 10 2
18 4 18 5 0 1 8 3 18 5 24 4 35 15 16 16 -8 0 -50 7 -94 15 -44 8 -89 15 -99
15 -11 0 -29 5 -40 12 -12 6 -25 10 -30 9 -5 -2 -16 4 -26 13 -9 8 -20 12 -23
8 -4 -3 -7 -1 -7 5 0 7 -6 12 -14 12 -9 0 -12 7 -9 21 4 14 0 25 -11 31 -9 5
-16 15 -16 23 0 22 -47 68 -61 59 -8 -4 -9 -3 -5 4 4 7 -8 25 -26 41 -40 37
-63 40 -55 9 8 -27 -28 -79 -48 -71 -11 4 -13 1 -9 -11 5 -13 2 -15 -12 -9
-17 6 -17 5 -5 -10 15 -19 9 -22 -17 -8 -10 5 -40 12 -67 16 -28 3 -61 8 -75
10 -14 2 -38 4 -53 4 -16 1 -26 5 -23 10 3 5 -8 11 -25 13 -35 5 -50 -8 -17
-15 13 -2 -6 -5 -42 -6 -150 -4 -281 -14 -387 -31 -62 -9 -113 -13 -113 -9 0
4 -10 9 -23 12 -23 4 -19 6 53 33 8 3 47 8 85 10 39 3 84 7 100 9 17 2 42 4
58 4 18 1 27 6 27 17 0 12 3 14 13 6 6 -6 81 -12 169 -14 130 -2 152 -1 125 9
l-32 11 30 1 c25 1 77 -9 192 -36 24 -6 25 5 3 50 -9 18 -24 30 -41 34 -18 3
-26 10 -22 19 3 8 0 14 -6 14 -6 0 -10 -6 -8 -12 1 -7 -8 -14 -20 -16 -23 -3
-33 -22 -12 -22 5 0 7 -5 4 -10 -4 -6 -12 -5 -21 4 -15 16 -57 13 -62 -4 -2
-5 -8 -10 -13 -10 -6 0 -7 5 -4 11 8 12 -100 11 -125 -2 -23 -11 -419 -29
-465 -21 l-39 7 49 12 c147 36 376 57 537 50 115 -5 156 1 129 18 -14 8 -314
9 -396 1 -38 -4 -125 -16 -193 -27 -68 -11 -132 -17 -143 -14 -11 4 -19 2 -19
-5 0 -6 -5 -8 -10 -5 -6 4 -8 10 -5 15 3 5 1 11 -5 15 -6 4 -8 11 -5 16 3 5
-1 6 -9 3 -10 -4 -16 -1 -16 7 0 8 -13 20 -29 27 -33 15 -49 51 -23 53 10 1
-2 7 -25 14 -75 24 -136 85 -84 85 11 0 23 5 26 10 4 6 -10 10 -34 10 l-41 0
0 -1575z m1268 1164 c-3 -8 -7 -3 -11 10 -4 17 -3 21 5 13 5 -5 8 -16 6 -23z
m-245 -56 c-7 -2 -21 -2 -30 0 -10 3 -4 5 12 5 17 0 24 -2 18 -5z m-104 -28
c-3 -2 -21 -5 -42 -7 -20 -1 -37 -5 -37 -8 0 -3 -65 -7 -145 -8 -80 -1 -164
-6 -188 -12 -53 -12 -60 -12 -53 -1 6 9 60 19 141 27 27 3 51 7 54 9 2 3 65 5
139 5 75 0 133 -2 131 -5z m761 -365 c0 -5 -5 -10 -11 -10 -5 0 -7 5 -4 10 3
6 8 10 11 10 2 0 4 -4 4 -10z m915 -790 c3 -5 1 -10 -4 -10 -6 0 -11 5 -11 10
0 6 2 10 4 10 3 0 8 -4 11 -10z m-765 -1130 c0 -5 -5 -10 -11 -10 -5 0 -7 5
-4 10 3 6 8 10 11 10 2 0 4 -4 4 -10z"/>
<path d="M1151 2925 c-1 -13 10 -27 28 -38 27 -16 29 -16 34 2 6 23 -10 51
-28 51 -8 0 -15 -8 -16 -17 0 -15 -2 -15 -9 2 -9 20 -9 20 -9 0z"/>
<path d="M470 2800 l-25 -8 28 -1 c15 -1 27 4 27 9 0 6 -1 10 -2 9 -2 -1 -14
-5 -28 -9z"/>
<path d="M515 2800 c3 -5 12 -7 20 -3 21 7 19 13 -6 13 -11 0 -18 -4 -14 -10z"/>
<path d="M2881 2513 c-23 -5 -51 -25 -51 -37 0 -3 9 -6 20 -6 11 0 23 -7 26
-15 4 -8 14 -15 25 -15 21 0 45 -35 29 -45 -5 -3 -10 -12 -9 -18 0 -9 2 -8 6
1 2 6 9 9 14 6 6 -3 6 -11 -2 -20 -9 -11 -8 -15 5 -20 10 -4 13 -11 8 -18 -4
-6 -7 -21 -6 -33 0 -13 -2 -23 -6 -23 -4 0 -5 -11 -2 -25 2 -14 8 -25 12 -25
9 0 25 -40 22 -52 -1 -5 3 -8 9 -8 5 0 8 -3 6 -7 -3 -5 -1 -28 3 -53 l7 -45 3
55 c5 160 7 377 3 393 -3 13 -14 17 -51 16 -26 -1 -58 -4 -71 -6z"/>
<path d="M8865 2238 c3 -13 30 -131 59 -263 l54 -240 -54 -55 c-30 -31 -54
-59 -54 -63 0 -5 57 -5 128 -2 70 4 240 7 377 8 l250 2 55 -27 c53 -27 213
-173 288 -263 l32 -40 0 59 c0 44 -4 62 -17 72 -17 13 -17 13 0 14 16 0 17 21
15 348 l-3 347 -60 2 c-118 3 -291 13 -320 18 -16 3 -60 7 -96 9 -37 2 -71 6
-76 9 -9 6 -254 16 -406 17 -46 0 -63 5 -81 23 -52 50 -100 63 -91 25z"/>
<path d="M9725 2201 c-17 -7 -14 -9 15 -13 40 -6 59 0 39 13 -17 10 -27 10
-54 0z"/>
<path d="M2430 1774 l-25 -14 28 0 c17 0 27 5 27 15 0 8 -1 15 -2 14 -2 -1
-14 -7 -28 -15z"/>
<path d="M2485 1780 c-3 -5 -1 -10 4 -10 6 0 11 5 11 10 0 6 -2 10 -4 10 -3 0
-8 -4 -11 -10z"/>
<path d="M2408 1733 c7 -3 16 -2 19 1 4 3 -2 6 -13 5 -11 0 -14 -3 -6 -6z"/>
<path d="M2580 1730 c0 -5 5 -10 10 -10 6 0 10 5 10 10 0 6 -4 10 -10 10 -5 0
-10 -4 -10 -10z"/>
<path d="M3922 1702 c-41 -20 -39 -46 4 -50 19 -2 39 4 55 17 l24 20 -24 1
c-16 0 -21 4 -17 15 7 19 0 18 -42 -3z"/>
<path d="M2415 1700 c3 -5 8 -10 11 -10 2 0 4 5 4 10 0 6 -5 10 -11 10 -5 0
-7 -4 -4 -10z"/>
<path d="M3560 1680 c0 -22 4 -28 15 -24 8 4 15 1 15 -5 0 -6 5 -11 11 -11 5
0 7 5 4 10 -9 14 8 13 23 -2 9 -9 12 -7 12 8 0 26 -30 54 -58 54 -18 0 -22 -6
-22 -30z"/>
<path d="M4080 1019 c0 -5 5 -7 10 -4 6 3 10 8 10 11 0 2 -4 4 -10 4 -5 0 -10
-5 -10 -11z"/>
<path d="M2098 993 c7 -3 16 -2 19 1 4 3 -2 6 -13 5 -11 0 -14 -3 -6 -6z"/>
<path d="M1950 960 c0 -5 5 -10 10 -10 6 0 10 5 10 10 0 6 -4 10 -10 10 -5 0
-10 -4 -10 -10z"/>
<path d="M1965 920 c-3 -5 1 -10 9 -10 8 0 18 5 21 10 3 6 -1 10 -9 10 -8 0
-18 -4 -21 -10z"/>
<path d="M2515 521 c-3 -5 0 -13 6 -17 8 -4 7 -9 -2 -15 -7 -4 -10 -11 -6 -15
10 -10 36 27 30 43 -6 15 -19 17 -28 4z"/>
<path d="M6360 501 c-14 -4 -40 -11 -57 -15 -36 -9 -37 -12 -22 -76 6 -25 11
-67 10 -93 0 -32 3 -46 10 -41 7 4 6 -3 -2 -17 -11 -22 -13 -22 -19 -5 -3 11
-15 21 -26 23 -57 11 -79 12 -88 4 -6 -5 -23 -8 -38 -7 -24 1 -27 -1 -22 -19
3 -11 19 -40 34 -65 17 -27 33 -74 41 -117 l13 -73 233 0 c128 0 233 2 233 5
0 2 -26 22 -58 43 -86 59 -97 90 -81 222 19 162 -7 229 -91 235 -25 2 -56 0
-70 -4z"/>
<path d="M5930 200 c0 -5 -3 -9 -7 -9 -26 4 -43 -2 -37 -13 6 -10 5 -10 -7 -1
-18 14 -45 1 -34 -17 5 -9 1 -10 -15 -5 -28 9 -52 -22 -56 -74 -2 -20 -6 -46
-9 -58 l-5 -23 140 0 c108 0 140 3 140 13 0 7 -4 17 -8 23 -15 15 -43 96 -32
89 17 -11 11 11 -12 41 -19 23 -20 27 -5 21 12 -4 16 -3 12 4 -4 6 -13 8 -21
5 -7 -3 -16 -1 -19 4 -8 13 -25 13 -25 0z"/>
<path d="M1755 150 c3 -5 8 -10 11 -10 2 0 4 5 4 10 0 6 -5 10 -11 10 -5 0 -7
-4 -4 -10z"/>
<path d="M1675 110 c3 -5 8 -10 11 -10 2 0 4 5 4 10 0 6 -5 10 -11 10 -5 0 -7
-4 -4 -10z"/>
</g>
</svg>
